<mxfile host="app.diagrams.net" agent="Mozilla/5.0 (Windows NT 10.0; Win64; x64) AppleWebKit/537.36 (KHTML, like Gecko) Chrome/130.0.0.0 Safari/537.36" version="24.8.3">
  <diagram name="Page-1" id="3YBQfa2etq4Ab2gt0Nnk">
    <mxGraphModel dx="3475" dy="1305" grid="1" gridSize="10" guides="1" tooltips="1" connect="1" arrows="1" fold="1" page="1" pageScale="1" pageWidth="850" pageHeight="1100" math="0" shadow="0">
      <root>
        <mxCell id="0" />
        <mxCell id="1" parent="0" />
        <mxCell id="FxV5qfCiIFgjYDE0-Pge-1" value="&lt;font style=&quot;font-size: 24px;&quot;&gt;&lt;b&gt;محیط عملیاتی:شرکت برنامه نویسی&lt;/b&gt;&lt;/font&gt;" style="text;html=1;align=center;verticalAlign=middle;whiteSpace=wrap;rounded=0;" vertex="1" parent="1">
          <mxGeometry x="-166" y="30" width="340" height="73" as="geometry" />
        </mxCell>
        <mxCell id="FxV5qfCiIFgjYDE0-Pge-2" value="" style="rounded=0;whiteSpace=wrap;html=1;" vertex="1" parent="1">
          <mxGeometry x="517" y="140" width="150" height="80" as="geometry" />
        </mxCell>
        <mxCell id="FxV5qfCiIFgjYDE0-Pge-3" value="" style="rounded=0;whiteSpace=wrap;html=1;" vertex="1" parent="1">
          <mxGeometry x="-74" y="140" width="150" height="80" as="geometry" />
        </mxCell>
        <mxCell id="FxV5qfCiIFgjYDE0-Pge-4" value="" style="rounded=0;whiteSpace=wrap;html=1;" vertex="1" parent="1">
          <mxGeometry x="-651" y="140" width="150" height="80" as="geometry" />
        </mxCell>
        <mxCell id="FxV5qfCiIFgjYDE0-Pge-5" value="&lt;b&gt;&lt;font style=&quot;font-size: 36px;&quot;&gt;پروژه&lt;/font&gt;&lt;/b&gt;" style="text;html=1;align=center;verticalAlign=middle;whiteSpace=wrap;rounded=0;" vertex="1" parent="1">
          <mxGeometry x="-29" y="165" width="60" height="30" as="geometry" />
        </mxCell>
        <mxCell id="FxV5qfCiIFgjYDE0-Pge-7" value="&lt;b&gt;&lt;font style=&quot;font-size: 36px;&quot;&gt;كارمند&lt;/font&gt;&lt;/b&gt;" style="text;html=1;align=center;verticalAlign=middle;whiteSpace=wrap;rounded=0;" vertex="1" parent="1">
          <mxGeometry x="562" y="165" width="60" height="30" as="geometry" />
        </mxCell>
        <mxCell id="FxV5qfCiIFgjYDE0-Pge-8" value="&lt;b&gt;&lt;font style=&quot;font-size: 48px;&quot;&gt;مشتري&lt;/font&gt;&lt;/b&gt;" style="text;html=1;align=center;verticalAlign=middle;whiteSpace=wrap;rounded=0;" vertex="1" parent="1">
          <mxGeometry x="-606" y="165" width="60" height="30" as="geometry" />
        </mxCell>
        <mxCell id="FxV5qfCiIFgjYDE0-Pge-9" value="" style="endArrow=classic;html=1;rounded=0;" edge="1" parent="1">
          <mxGeometry width="50" height="50" relative="1" as="geometry">
            <mxPoint x="522" y="220" as="sourcePoint" />
            <mxPoint x="417" y="360" as="targetPoint" />
          </mxGeometry>
        </mxCell>
        <mxCell id="FxV5qfCiIFgjYDE0-Pge-10" value="" style="endArrow=classic;html=1;rounded=0;" edge="1" parent="1">
          <mxGeometry width="50" height="50" relative="1" as="geometry">
            <mxPoint x="591.6700000000001" y="220" as="sourcePoint" />
            <mxPoint x="591.6700000000001" y="360" as="targetPoint" />
          </mxGeometry>
        </mxCell>
        <mxCell id="FxV5qfCiIFgjYDE0-Pge-11" value="" style="endArrow=classic;html=1;rounded=0;" edge="1" parent="1">
          <mxGeometry width="50" height="50" relative="1" as="geometry">
            <mxPoint x="662" y="220" as="sourcePoint" />
            <mxPoint x="737" y="360" as="targetPoint" />
          </mxGeometry>
        </mxCell>
        <mxCell id="FxV5qfCiIFgjYDE0-Pge-12" value="" style="endArrow=classic;html=1;rounded=0;" edge="1" parent="1">
          <mxGeometry width="50" height="50" relative="1" as="geometry">
            <mxPoint x="-65" y="220" as="sourcePoint" />
            <mxPoint x="-170" y="360" as="targetPoint" />
          </mxGeometry>
        </mxCell>
        <mxCell id="FxV5qfCiIFgjYDE0-Pge-13" value="" style="endArrow=classic;html=1;rounded=0;" edge="1" parent="1">
          <mxGeometry width="50" height="50" relative="1" as="geometry">
            <mxPoint x="4.670000000000016" y="220" as="sourcePoint" />
            <mxPoint x="4.670000000000016" y="360" as="targetPoint" />
          </mxGeometry>
        </mxCell>
        <mxCell id="FxV5qfCiIFgjYDE0-Pge-14" value="" style="endArrow=classic;html=1;rounded=0;" edge="1" parent="1">
          <mxGeometry width="50" height="50" relative="1" as="geometry">
            <mxPoint x="75" y="220" as="sourcePoint" />
            <mxPoint x="150" y="360" as="targetPoint" />
          </mxGeometry>
        </mxCell>
        <mxCell id="FxV5qfCiIFgjYDE0-Pge-15" value="" style="endArrow=classic;html=1;rounded=0;" edge="1" parent="1">
          <mxGeometry width="50" height="50" relative="1" as="geometry">
            <mxPoint x="-646" y="220" as="sourcePoint" />
            <mxPoint x="-751" y="360" as="targetPoint" />
          </mxGeometry>
        </mxCell>
        <mxCell id="FxV5qfCiIFgjYDE0-Pge-16" value="" style="endArrow=classic;html=1;rounded=0;" edge="1" parent="1">
          <mxGeometry width="50" height="50" relative="1" as="geometry">
            <mxPoint x="-576.3299999999999" y="220" as="sourcePoint" />
            <mxPoint x="-576.3299999999999" y="360" as="targetPoint" />
          </mxGeometry>
        </mxCell>
        <mxCell id="FxV5qfCiIFgjYDE0-Pge-17" value="" style="endArrow=classic;html=1;rounded=0;" edge="1" parent="1">
          <mxGeometry width="50" height="50" relative="1" as="geometry">
            <mxPoint x="-506" y="220" as="sourcePoint" />
            <mxPoint x="-431" y="360" as="targetPoint" />
          </mxGeometry>
        </mxCell>
        <mxCell id="FxV5qfCiIFgjYDE0-Pge-18" value="" style="ellipse;whiteSpace=wrap;html=1;fillColor=#dae8fc;strokeColor=#6c8ebf;" vertex="1" parent="1">
          <mxGeometry x="700" y="370" width="120" height="80" as="geometry" />
        </mxCell>
        <mxCell id="FxV5qfCiIFgjYDE0-Pge-19" value="" style="ellipse;whiteSpace=wrap;html=1;fillColor=#dae8fc;strokeColor=#6c8ebf;" vertex="1" parent="1">
          <mxGeometry x="531" y="370" width="120" height="80" as="geometry" />
        </mxCell>
        <mxCell id="FxV5qfCiIFgjYDE0-Pge-20" value="" style="ellipse;whiteSpace=wrap;html=1;fillColor=#dae8fc;strokeColor=#6c8ebf;" vertex="1" parent="1">
          <mxGeometry x="350" y="370" width="120" height="80" as="geometry" />
        </mxCell>
        <mxCell id="FxV5qfCiIFgjYDE0-Pge-21" value="" style="ellipse;whiteSpace=wrap;html=1;fillColor=#dae8fc;strokeColor=#6c8ebf;" vertex="1" parent="1">
          <mxGeometry x="-234" y="370" width="120" height="80" as="geometry" />
        </mxCell>
        <mxCell id="FxV5qfCiIFgjYDE0-Pge-22" value="" style="ellipse;whiteSpace=wrap;html=1;fillColor=#dae8fc;strokeColor=#6c8ebf;" vertex="1" parent="1">
          <mxGeometry x="-53" y="370" width="120" height="80" as="geometry" />
        </mxCell>
        <mxCell id="FxV5qfCiIFgjYDE0-Pge-23" value="" style="ellipse;whiteSpace=wrap;html=1;fillColor=#dae8fc;strokeColor=#6c8ebf;" vertex="1" parent="1">
          <mxGeometry x="116" y="370" width="120" height="80" as="geometry" />
        </mxCell>
        <mxCell id="FxV5qfCiIFgjYDE0-Pge-24" value="" style="ellipse;whiteSpace=wrap;html=1;fillColor=#dae8fc;strokeColor=#6c8ebf;" vertex="1" parent="1">
          <mxGeometry x="-461" y="370" width="120" height="80" as="geometry" />
        </mxCell>
        <mxCell id="FxV5qfCiIFgjYDE0-Pge-25" value="" style="ellipse;whiteSpace=wrap;html=1;fillColor=#dae8fc;strokeColor=#6c8ebf;" vertex="1" parent="1">
          <mxGeometry x="-630" y="370" width="120" height="80" as="geometry" />
        </mxCell>
        <mxCell id="FxV5qfCiIFgjYDE0-Pge-26" value="" style="ellipse;whiteSpace=wrap;html=1;fillColor=#dae8fc;strokeColor=#6c8ebf;" vertex="1" parent="1">
          <mxGeometry x="-811" y="370" width="120" height="80" as="geometry" />
        </mxCell>
        <mxCell id="FxV5qfCiIFgjYDE0-Pge-29" value="" style="rhombus;whiteSpace=wrap;html=1;fillColor=#f8cecc;strokeColor=#b85450;" vertex="1" parent="1">
          <mxGeometry x="-420" y="100" width="180" height="180" as="geometry" />
        </mxCell>
        <mxCell id="FxV5qfCiIFgjYDE0-Pge-33" value="" style="endArrow=none;html=1;rounded=0;" edge="1" parent="1">
          <mxGeometry width="50" height="50" relative="1" as="geometry">
            <mxPoint x="-240" y="190" as="sourcePoint" />
            <mxPoint x="-73" y="190" as="targetPoint" />
          </mxGeometry>
        </mxCell>
        <mxCell id="FxV5qfCiIFgjYDE0-Pge-34" value="" style="endArrow=none;html=1;rounded=0;" edge="1" parent="1">
          <mxGeometry width="50" height="50" relative="1" as="geometry">
            <mxPoint x="-500" y="189" as="sourcePoint" />
            <mxPoint x="-420" y="189" as="targetPoint" />
          </mxGeometry>
        </mxCell>
        <mxCell id="FxV5qfCiIFgjYDE0-Pge-35" value="" style="endArrow=none;html=1;rounded=0;exitX=0.998;exitY=0.626;exitDx=0;exitDy=0;exitPerimeter=0;" edge="1" parent="1" source="FxV5qfCiIFgjYDE0-Pge-3">
          <mxGeometry width="50" height="50" relative="1" as="geometry">
            <mxPoint x="80" y="190" as="sourcePoint" />
            <mxPoint x="260" y="190" as="targetPoint" />
          </mxGeometry>
        </mxCell>
        <mxCell id="FxV5qfCiIFgjYDE0-Pge-36" value="" style="endArrow=none;html=1;rounded=0;" edge="1" parent="1">
          <mxGeometry width="50" height="50" relative="1" as="geometry">
            <mxPoint x="337" y="189.41" as="sourcePoint" />
            <mxPoint x="517" y="189.41" as="targetPoint" />
          </mxGeometry>
        </mxCell>
        <mxCell id="FxV5qfCiIFgjYDE0-Pge-37" value="&lt;u&gt;&lt;font style=&quot;font-size: 24px;&quot;&gt;ID&lt;/font&gt;&lt;/u&gt;" style="text;html=1;align=center;verticalAlign=middle;whiteSpace=wrap;rounded=0;" vertex="1" parent="1">
          <mxGeometry x="730" y="395" width="60" height="30" as="geometry" />
        </mxCell>
        <mxCell id="FxV5qfCiIFgjYDE0-Pge-38" value="&lt;u&gt;&lt;font style=&quot;font-size: 24px;&quot;&gt;ID&lt;/font&gt;&lt;/u&gt;" style="text;html=1;align=center;verticalAlign=middle;whiteSpace=wrap;rounded=0;" vertex="1" parent="1">
          <mxGeometry x="146" y="395" width="60" height="30" as="geometry" />
        </mxCell>
        <mxCell id="FxV5qfCiIFgjYDE0-Pge-39" value="&lt;u&gt;&lt;font style=&quot;font-size: 24px;&quot;&gt;ID&lt;/font&gt;&lt;/u&gt;" style="text;html=1;align=center;verticalAlign=middle;whiteSpace=wrap;rounded=0;" vertex="1" parent="1">
          <mxGeometry x="-431" y="395" width="60" height="30" as="geometry" />
        </mxCell>
        <mxCell id="FxV5qfCiIFgjYDE0-Pge-40" value="&lt;font style=&quot;font-size: 24px;&quot;&gt;نام و نام خانوادگی&lt;/font&gt;" style="text;html=1;align=center;verticalAlign=middle;whiteSpace=wrap;rounded=0;" vertex="1" parent="1">
          <mxGeometry x="530" y="390" width="120" height="40" as="geometry" />
        </mxCell>
        <mxCell id="FxV5qfCiIFgjYDE0-Pge-41" value="&lt;font style=&quot;font-size: 24px;&quot;&gt;نام&amp;nbsp;&lt;/font&gt;" style="text;html=1;align=center;verticalAlign=middle;whiteSpace=wrap;rounded=0;" vertex="1" parent="1">
          <mxGeometry x="-53" y="390" width="120" height="40" as="geometry" />
        </mxCell>
        <mxCell id="FxV5qfCiIFgjYDE0-Pge-42" value="&lt;font style=&quot;font-size: 24px;&quot;&gt;نام و نام خانوادگی&lt;/font&gt;" style="text;html=1;align=center;verticalAlign=middle;whiteSpace=wrap;rounded=0;" vertex="1" parent="1">
          <mxGeometry x="-634" y="388" width="120" height="40" as="geometry" />
        </mxCell>
        <mxCell id="FxV5qfCiIFgjYDE0-Pge-43" value="&lt;font style=&quot;font-size: 24px;&quot;&gt;تاریخ پایان&lt;/font&gt;" style="text;html=1;align=center;verticalAlign=middle;whiteSpace=wrap;rounded=0;" vertex="1" parent="1">
          <mxGeometry x="-234" y="388" width="120" height="40" as="geometry" />
        </mxCell>
        <mxCell id="FxV5qfCiIFgjYDE0-Pge-44" value="&lt;font style=&quot;font-size: 24px;&quot;&gt;سمت&lt;/font&gt;" style="text;html=1;align=center;verticalAlign=middle;whiteSpace=wrap;rounded=0;" vertex="1" parent="1">
          <mxGeometry x="350" y="390" width="120" height="40" as="geometry" />
        </mxCell>
        <mxCell id="FxV5qfCiIFgjYDE0-Pge-45" value="&lt;font style=&quot;font-size: 24px;&quot;&gt;شماره تلفن&lt;/font&gt;" style="text;html=1;align=center;verticalAlign=middle;whiteSpace=wrap;rounded=0;" vertex="1" parent="1">
          <mxGeometry x="-815" y="388" width="120" height="40" as="geometry" />
        </mxCell>
        <mxCell id="FxV5qfCiIFgjYDE0-Pge-46" value="" style="rhombus;whiteSpace=wrap;html=1;fillColor=#f8cecc;strokeColor=#b85450;" vertex="1" parent="1">
          <mxGeometry x="210" y="100" width="180" height="180" as="geometry" />
        </mxCell>
        <mxCell id="FxV5qfCiIFgjYDE0-Pge-47" value="&lt;span style=&quot;font-size: 24px;&quot;&gt;&lt;b&gt;سفارش&lt;/b&gt;&lt;/span&gt;" style="text;html=1;align=center;verticalAlign=middle;whiteSpace=wrap;rounded=0;" vertex="1" parent="1">
          <mxGeometry x="-360" y="140" width="60" height="30" as="geometry" />
        </mxCell>
        <mxCell id="FxV5qfCiIFgjYDE0-Pge-48" value="&lt;span style=&quot;font-size: 24px;&quot;&gt;&lt;b&gt;وظیفه&amp;nbsp;&lt;/b&gt;&lt;/span&gt;" style="text;html=1;align=center;verticalAlign=middle;whiteSpace=wrap;rounded=0;" vertex="1" parent="1">
          <mxGeometry x="274" y="140" width="60" height="30" as="geometry" />
        </mxCell>
        <mxCell id="FxV5qfCiIFgjYDE0-Pge-54" value="" style="endArrow=none;html=1;rounded=0;exitX=-0.006;exitY=0.468;exitDx=0;exitDy=0;exitPerimeter=0;entryX=0;entryY=0.75;entryDx=0;entryDy=0;" edge="1" parent="1" source="FxV5qfCiIFgjYDE0-Pge-3" target="FxV5qfCiIFgjYDE0-Pge-3">
          <mxGeometry width="50" height="50" relative="1" as="geometry">
            <mxPoint x="-87.99999999999986" y="175.00000000000003" as="sourcePoint" />
            <mxPoint x="-74" y="189.12" as="targetPoint" />
            <Array as="points">
              <mxPoint x="-90" y="190" />
            </Array>
          </mxGeometry>
        </mxCell>
        <mxCell id="FxV5qfCiIFgjYDE0-Pge-55" value="" style="endArrow=none;html=1;rounded=0;exitX=-0.006;exitY=0.468;exitDx=0;exitDy=0;exitPerimeter=0;entryX=0;entryY=0.75;entryDx=0;entryDy=0;" edge="1" parent="1">
          <mxGeometry width="50" height="50" relative="1" as="geometry">
            <mxPoint x="516" y="178.28" as="sourcePoint" />
            <mxPoint x="517" y="201.28" as="targetPoint" />
            <Array as="points">
              <mxPoint x="501" y="191.28" />
            </Array>
          </mxGeometry>
        </mxCell>
        <mxCell id="FxV5qfCiIFgjYDE0-Pge-56" value="" style="endArrow=none;html=1;rounded=0;entryX=1.002;entryY=0.436;entryDx=0;entryDy=0;entryPerimeter=0;exitX=1;exitY=0.75;exitDx=0;exitDy=0;" edge="1" parent="1" source="FxV5qfCiIFgjYDE0-Pge-3" target="FxV5qfCiIFgjYDE0-Pge-3">
          <mxGeometry width="50" height="50" relative="1" as="geometry">
            <mxPoint x="210" y="210" as="sourcePoint" />
            <mxPoint x="260" y="160" as="targetPoint" />
            <Array as="points">
              <mxPoint x="100" y="190" />
            </Array>
          </mxGeometry>
        </mxCell>
        <mxCell id="FxV5qfCiIFgjYDE0-Pge-57" value="&lt;span style=&quot;font-size: 24px;&quot;&gt;&lt;b&gt;M:N&lt;/b&gt;&lt;/span&gt;" style="text;html=1;align=center;verticalAlign=middle;whiteSpace=wrap;rounded=0;" vertex="1" parent="1">
          <mxGeometry x="270" y="190" width="60" height="30" as="geometry" />
        </mxCell>
        <mxCell id="FxV5qfCiIFgjYDE0-Pge-58" value="&lt;span style=&quot;font-size: 24px;&quot;&gt;&lt;b&gt;1:N&lt;/b&gt;&lt;/span&gt;" style="text;html=1;align=center;verticalAlign=middle;whiteSpace=wrap;rounded=0;" vertex="1" parent="1">
          <mxGeometry x="-360" y="190" width="60" height="30" as="geometry" />
        </mxCell>
        <mxCell id="FxV5qfCiIFgjYDE0-Pge-59" value="&lt;b style=&quot;&quot;&gt;&lt;font style=&quot;font-size: 80px;&quot;&gt;طاها کلانتری&lt;/font&gt;&lt;/b&gt;" style="text;html=1;align=center;verticalAlign=middle;whiteSpace=wrap;rounded=0;" vertex="1" parent="1">
          <mxGeometry x="-198.5" y="620" width="399" height="150" as="geometry" />
        </mxCell>
      </root>
    </mxGraphModel>
  </diagram>
</mxfile>
